<?xml version="1.0" encoding="UTF-8" standalone="no"?>
<!-- Created with Inkscape (http://www.inkscape.org/) -->

<svg
   width="34.869846mm"
   height="27.454912mm"
   viewBox="0 0 34.869847 27.454912"
   version="1.1"
   id="svg5"
   sodipodi:docname="Logo.svg"
   inkscape:version="1.2.1 (9c6d41e410, 2022-07-14)"
   xmlns:inkscape="http://www.inkscape.org/namespaces/inkscape"
   xmlns:sodipodi="http://sodipodi.sourceforge.net/DTD/sodipodi-0.dtd"
   xmlns="http://www.w3.org/2000/svg"
   xmlns:svg="http://www.w3.org/2000/svg">
  <sodipodi:namedview
     id="namedview142"
     pagecolor="#000000"
     bordercolor="#000000"
     borderopacity="0.25"
     inkscape:showpageshadow="2"
     inkscape:pageopacity="0"
     inkscape:pagecheckerboard="0"
     inkscape:deskcolor="#d1d1d1"
     inkscape:document-units="mm"
     showgrid="false"
     inkscape:zoom="7.9890834"
     inkscape:cx="61.771792"
     inkscape:cy="51.945884"
     inkscape:window-width="1920"
     inkscape:window-height="1009"
     inkscape:window-x="-8"
     inkscape:window-y="-8"
     inkscape:window-maximized="1"
     inkscape:current-layer="svg5" />
  <defs
     id="defs2" />
  <g
     id="layer1"
     transform="translate(-73.61125,-124.27641)"
     style="fill:#ffffff"
     inkscape:export-filename="Logo.svg"
     inkscape:export-xdpi="96"
     inkscape:export-ydpi="96">
    <g
       id="g5560"
       transform="matrix(8.1919258,0,0,8.1919258,-529.40675,-893.78683)"
       style="fill:#ffffff">
      <g
         aria-label="Vee"
         id="text236"
         style="font-size:3.175px;font-family:'Dancing Script';-inkscape-font-specification:'Dancing Script';stroke-width:0.264999;paint-order:markers stroke fill">
        <path
           d="m 74.358447,126.74022 q 0.0889,0 0.206375,-0.0921 0.117475,-0.0921 0.2413,-0.24448 0.127,-0.15557 0.244475,-0.35242 0.12065,-0.20003 0.2159,-0.41275 0.09525,-0.21273 0.1524,-0.4191 0.05715,-0.20955 0.05715,-0.38418 0,-0.15875 -0.04762,-0.23177 -0.04762,-0.073 -0.127,-0.0984 0.04445,-0.0762 0.09207,-0.11112 0.0508,-0.0349 0.09208,-0.0349 0.06667,0 0.130175,0.0857 0.0635,0.0857 0.0635,0.2667 0,0.17462 -0.06668,0.40005 -0.06668,0.22542 -0.1778,0.46037 -0.10795,0.23495 -0.250825,0.46355 -0.142875,0.2286 -0.29845,0.4064 -0.1524,0.1778 -0.307975,0.28575 -0.1524,0.11113 -0.282575,0.11113 -0.03492,0 -0.08255,-0.01 -0.04445,-0.01 -0.0889,-0.0381 -0.04127,-0.0286 -0.07303,-0.0794 -0.02858,-0.0476 -0.02858,-0.127 0,-0.11748 0.06033,-0.3175 0.0635,-0.2032 0.1397,-0.44768 0.0762,-0.24447 0.136525,-0.508 0.0635,-0.26352 0.0635,-0.50165 0,-0.0889 -0.0032,-0.16827 -0.0032,-0.0794 -0.02223,-0.1397 -0.01905,-0.0635 -0.05715,-0.0984 -0.0381,-0.0381 -0.10795,-0.0381 -0.0889,0 -0.1524,0.054 -0.06033,0.054 -0.1016,0.13652 -0.0381,0.0794 -0.05715,0.17145 -0.01588,0.0921 -0.01588,0.17145 0,0.10478 0.02858,0.17145 -0.123825,0 -0.174625,-0.0667 -0.0508,-0.0699 -0.0508,-0.16193 0,-0.0984 0.04762,-0.19685 0.04763,-0.1016 0.127,-0.18097 0.07937,-0.0825 0.18415,-0.13335 0.104775,-0.054 0.22225,-0.054 0.200025,0 0.295275,0.15558 0.09525,0.1524 0.09525,0.40957 0,0.23178 -0.0635,0.48895 -0.0635,0.254 -0.142875,0.4953 -0.0762,0.23813 -0.1397,0.44768 -0.0635,0.20637 -0.0635,0.3429 0,0.054 0.01587,0.0889 0.01905,0.0349 0.07303,0.0349 z"
           style="stroke-width:0.265"
           id="path426" />
        <path
           d="m 76.504747,125.6131 q 0,0.12065 -0.07303,0.2286 -0.06985,0.10477 -0.18415,0.18732 -0.1143,0.0825 -0.254,0.13653 -0.1397,0.0508 -0.276225,0.0635 -0.0063,0.0318 -0.0095,0.0603 -0.0032,0.0286 -0.0032,0.054 0,0.0476 0.0095,0.0952 0.0127,0.0476 0.04127,0.0857 0.02857,0.0381 0.0762,0.0603 0.0508,0.0254 0.123825,0.0254 0.17145,0 0.333375,-0.11748 0.1651,-0.11747 0.288925,-0.29527 0.02858,-0.13018 0.1016,-0.26035 0.07303,-0.13335 0.174625,-0.23813 0.104775,-0.10477 0.225425,-0.16827 0.12065,-0.0667 0.244475,-0.0667 0.07303,0 0.13335,0.0381 0.0635,0.0381 0.0635,0.15558 0,0.12065 -0.06668,0.22225 -0.0635,0.0984 -0.168275,0.17145 -0.104775,0.073 -0.238125,0.12065 -0.13335,0.0445 -0.269875,0.0572 -0.0064,0.0318 -0.0095,0.0603 -0.0032,0.0286 -0.0032,0.054 0,0.0476 0.0095,0.0984 0.0127,0.0508 0.0381,0.0921 0.02858,0.0413 0.0762,0.0667 0.04763,0.0254 0.12065,0.0254 0.1016,0 0.2032,-0.0476 0.104775,-0.0476 0.200025,-0.127 0.09525,-0.0794 0.1778,-0.18415 0.08255,-0.10478 0.142875,-0.21908 l 0.0381,0.0286 q -0.0635,0.14287 -0.15875,0.26035 -0.09207,0.11747 -0.2032,0.2032 -0.10795,0.0857 -0.2286,0.13017 -0.12065,0.0476 -0.238125,0.0476 -0.09525,0 -0.168275,-0.0318 -0.06985,-0.0318 -0.117475,-0.0857 -0.04762,-0.0508 -0.07303,-0.12065 -0.02222,-0.0699 -0.02222,-0.14605 v -0.0159 q -0.136525,0.18097 -0.314325,0.28257 -0.1778,0.1016 -0.358775,0.1016 -0.193675,0 -0.2921,-0.10795 -0.09525,-0.10477 -0.09525,-0.26035 0,-0.0953 0.03493,-0.20002 0.03175,-0.10478 0.0889,-0.20638 0.06033,-0.1016 0.136525,-0.19367 0.07937,-0.0921 0.168275,-0.16193 0.09208,-0.0699 0.187325,-0.11112 0.09525,-0.0413 0.1905,-0.0413 0.07303,0 0.13335,0.0381 0.0635,0.0381 0.0635,0.15558 z m -0.206375,-0.0953 q -0.0762,0 -0.161925,0.0603 -0.08573,0.0571 -0.1651,0.1524 -0.07937,0.0921 -0.142875,0.20955 -0.0635,0.1143 -0.09525,0.2286 0.08572,-0.0286 0.193675,-0.0825 0.10795,-0.0571 0.206375,-0.13335 0.09842,-0.0762 0.1651,-0.16827 0.06668,-0.0921 0.06668,-0.19368 0,-0.0349 -0.0127,-0.054 -0.0127,-0.0191 -0.05397,-0.0191 z m 1.016,0.0444 q -0.0762,0 -0.155575,0.054 -0.07938,0.0508 -0.149225,0.13653 -0.06985,0.0857 -0.127,0.19367 -0.05715,0.10795 -0.0889,0.22225 0.08572,-0.0286 0.187325,-0.0762 0.104775,-0.0476 0.193675,-0.11112 0.09207,-0.0667 0.1524,-0.14923 0.06033,-0.0857 0.06033,-0.18732 0,-0.0349 -0.01588,-0.0572 -0.01587,-0.0254 -0.05715,-0.0254 z"
           style="stroke-width:0.265"
           id="path428" />
      </g>
      <g
         aria-label="Distributions"
         id="text5262"
         style="font-size:0.920348px;font-family:'Dancing Script';-inkscape-font-specification:'Dancing Script';stroke-width:0.0768161;paint-order:markers stroke fill">
        <path
           d="m 74.083401,127.12721 q 0,-0.0561 -0.0138,-0.0966 -0.01381,-0.0414 -0.03866,-0.0681 -0.02485,-0.0267 -0.05982,-0.0396 -0.03497,-0.0129 -0.07639,-0.0129 -0.0451,0 -0.08375,0.0138 -0.03866,0.0138 -0.06719,0.0386 -0.02761,0.0239 -0.04418,0.0571 -0.01565,0.0322 -0.01565,0.0699 0,0.0203 0.0046,0.0341 -0.03037,0 -0.04326,-0.0147 -0.01196,-0.0157 -0.01196,-0.0368 0,-0.0322 0.02301,-0.0653 0.02301,-0.0331 0.06166,-0.0598 0.03957,-0.0276 0.09203,-0.0442 0.05246,-0.0175 0.112282,-0.0175 0.06166,0 0.10492,0.0193 0.04418,0.0193 0.07179,0.0534 0.02761,0.034 0.03957,0.0801 0.01288,0.046 0.01288,0.0994 0,0.0663 -0.01841,0.12885 -0.01749,0.0617 -0.04878,0.11688 -0.03037,0.0543 -0.07271,0.0994 -0.04234,0.0451 -0.09203,0.0773 -0.04878,0.0322 -0.103079,0.0497 -0.05338,0.0184 -0.10676,0.0184 -0.02945,0 -0.05522,-0.008 -0.02485,-0.007 -0.04326,-0.0331 0.0092,-0.0433 0.02209,-0.0948 0.0138,-0.0525 0.02945,-0.10584 0.01565,-0.0534 0.03129,-0.10492 0.01657,-0.0525 0.03129,-0.0966 0.01472,-0.0451 0.02669,-0.0791 0.01196,-0.035 0.01841,-0.0525 0.0028,-0.007 0.0092,-0.0212 0.0064,-0.0147 0.01565,-0.0294 0.0092,-0.0147 0.02117,-0.0249 0.01196,-0.011 0.02577,-0.011 0.01288,0 0.02577,0.009 -0.02853,0.0663 -0.05798,0.14725 -0.02945,0.0801 -0.05614,0.16474 -0.02577,0.0838 -0.04786,0.16567 -0.02209,0.081 -0.03681,0.14725 0.01288,0.002 0.02117,0.003 0.0092,9.2e-4 0.01841,9.2e-4 0.04878,0 0.09572,-0.0193 0.04694,-0.0193 0.08835,-0.0534 0.04142,-0.0341 0.07639,-0.0801 0.03497,-0.046 0.05982,-0.0985 0.02577,-0.0534 0.03957,-0.11044 0.01473,-0.058 0.01473,-0.11505 z"
           style="stroke-width:0.0768164"
           id="path431" />
        <path
           d="m 74.284957,127.23582 q 0.0083,0 0.01381,0.006 0.0064,0.005 0.0064,0.0147 0,0.011 -0.01565,0.0368 -0.01473,0.0249 -0.03313,0.0571 -0.01749,0.0313 -0.03221,0.0672 -0.01472,0.035 -0.01472,0.0672 0,0.0331 0.01104,0.0442 0.01104,0.011 0.03405,0.011 0.01565,0 0.03221,-0.007 0.01657,-0.007 0.03405,-0.0239 0.01841,-0.0166 0.03681,-0.0433 0.01933,-0.0267 0.03865,-0.0663 l 0.0083,0.009 q -0.01381,0.0396 -0.03405,0.0709 -0.01933,0.0304 -0.04326,0.0515 -0.02393,0.0202 -0.05062,0.0304 -0.02669,0.011 -0.05338,0.011 -0.03589,0 -0.05338,-0.023 -0.01749,-0.0221 -0.01749,-0.0543 0,-0.0175 0.0055,-0.0433 0.0055,-0.0258 0.01473,-0.0543 0.01012,-0.0294 0.02209,-0.058 0.01289,-0.0285 0.02761,-0.0515 0.01472,-0.023 0.03037,-0.0368 0.01657,-0.0147 0.03221,-0.0147 z m 0.04878,-0.0856 q -0.01565,0 -0.02669,-0.007 -0.01104,-0.007 -0.01104,-0.023 0,-0.009 0.0064,-0.0175 0.0064,-0.009 0.01565,-0.0156 0.01012,-0.007 0.02209,-0.011 0.01197,-0.004 0.02301,-0.004 0.01381,0 0.02209,0.006 0.0083,0.006 0.0083,0.0221 0,0.008 -0.0055,0.0175 -0.0046,0.009 -0.01381,0.0166 -0.0083,0.006 -0.01933,0.011 -0.01012,0.005 -0.02117,0.005 z"
           style="stroke-width:0.0768164"
           id="path433" />
        <path
           d="m 74.361347,127.47419 q 0,-0.0276 0.0083,-0.0423 0.0074,-0.0147 0.01749,-0.0221 0.01012,-0.007 0.01933,-0.0101 0.01012,-0.004 0.01381,-0.008 0.02761,-0.0304 0.05062,-0.0635 0.02301,-0.0331 0.0405,-0.0699 v -0.011 q 0,-0.034 0.01104,-0.0479 0.01196,-0.0147 0.02485,-0.0147 0.01473,0 0.01473,0.012 0,0.005 -0.0028,0.0147 -0.0028,0.0101 -0.0028,0.0258 0,0.023 0.0074,0.0488 0.0074,0.0249 0.01657,0.0534 0.0092,0.0276 0.01657,0.058 0.0074,0.0304 0.0074,0.0617 0,0.0249 -0.0055,0.0451 0.03221,-0.006 0.06074,-0.0285 0.02853,-0.023 0.05522,-0.0755 l 0.0083,0.009 q -0.01749,0.0506 -0.05246,0.0773 -0.03497,0.0258 -0.07639,0.0322 -0.01473,0.0396 -0.04694,0.058 -0.03129,0.0184 -0.07087,0.0184 -0.03221,0 -0.0543,-0.011 -0.02209,-0.011 -0.03589,-0.0285 -0.01288,-0.0175 -0.01841,-0.0387 -0.0064,-0.0212 -0.0064,-0.0423 z m 0.183149,-0.0147 q 0,-0.0442 -0.01104,-0.0856 -0.01012,-0.0423 -0.01749,-0.081 -0.02117,0.035 -0.0451,0.0672 -0.02301,0.0313 -0.04418,0.0525 0.01381,0.0294 0.04234,0.0552 0.02945,0.0258 0.07179,0.035 0.0018,-0.009 0.0028,-0.0193 9.2e-4,-0.0101 9.2e-4,-0.0239 z m -0.06627,0.10308 q 0.0055,0 0.01289,-0.002 0.0083,-9.2e-4 0.01657,-0.006 0.0083,-0.005 0.01565,-0.0129 0.0074,-0.009 0.01288,-0.0249 -0.03866,-0.007 -0.06903,-0.0294 -0.02945,-0.023 -0.04418,-0.0469 -0.02025,9.2e-4 -0.02025,0.0322 0,0.0166 0.0046,0.0331 0.0055,0.0156 0.01473,0.0285 0.01012,0.012 0.02393,0.0193 0.0138,0.008 0.03221,0.008 z"
           style="stroke-width:0.0768164"
           id="path435" />
        <path
           d="m 74.977981,127.27079 q -0.101239,0.011 -0.161982,0.011 h -0.01381 q -0.02117,0.0497 -0.03589,0.10032 -0.01472,0.0506 -0.01472,0.10032 0,0.0405 0.01196,0.0571 0.01197,0.0166 0.03957,0.0166 0.04786,0 0.09388,-0.0423 0.04602,-0.0423 0.08099,-0.11504 l 0.01196,0.009 q -0.01657,0.0387 -0.0405,0.0727 -0.02301,0.0331 -0.05062,0.058 -0.02761,0.0239 -0.0589,0.0377 -0.03129,0.0138 -0.0635,0.0138 -0.08191,0 -0.08191,-0.0911 0,-0.0414 0.01473,-0.0994 0.01472,-0.0589 0.03866,-0.12241 -0.0092,-0.002 -0.01749,-0.003 -0.0083,-0.002 -0.01565,-0.005 v -0.0166 q 0.0074,9.2e-4 0.01749,0.002 0.01012,9.2e-4 0.02301,0.002 0.01933,-0.0497 0.04142,-0.0957 0.02209,-0.0469 0.04326,-0.0828 0.02209,-0.0368 0.04142,-0.058 0.02025,-0.0221 0.03405,-0.0221 0.0074,0 0.01288,0.006 0.0064,0.005 0.0064,0.0147 0,0.012 -0.01196,0.0359 -0.01104,0.023 -0.02945,0.0543 -0.01749,0.0313 -0.03957,0.0699 -0.02117,0.0387 -0.04142,0.081 h 0.03405 q 0.03037,0 0.0635,-9.2e-4 0.03313,-9.2e-4 0.06811,-0.005 z"
           style="stroke-width:0.0768164"
           id="path437" />
        <path
           d="m 74.962334,127.43093 q 0.01288,-0.0239 0.03313,-0.07 0.02117,-0.046 0.04142,-0.10492 -0.0092,-0.009 -0.0092,-0.0221 0,-0.0138 0.0046,-0.0248 0.0046,-0.012 0.01104,-0.0203 0.0064,-0.008 0.01288,-0.0129 0.0064,-0.005 0.01012,-0.005 0.01012,0 0.01104,0.009 0.0018,0.008 0.0018,0.0129 0,0.003 -0.0018,0.008 -9.2e-4,0.005 -0.0037,0.0101 -0.0018,0.006 -0.0037,0.0101 -9.21e-4,0.005 -9.21e-4,0.006 0,0.0129 0.01473,0.0239 0.01472,0.0101 0.03221,0.0239 0.01749,0.0129 0.03221,0.0322 0.01473,0.0184 0.01473,0.0479 0,0.0212 -0.0074,0.0433 -0.0074,0.0212 -0.01565,0.0414 -0.0083,0.0203 -0.01565,0.0387 -0.0074,0.0175 -0.0074,0.0322 0,0.0166 0.0083,0.0221 0.0083,0.006 0.01933,0.006 0.02209,0 0.04602,-0.0138 0.02393,-0.0138 0.0451,-0.034 0.02209,-0.0212 0.03957,-0.0451 0.01749,-0.0239 0.02577,-0.0442 l 0.01197,0.009 q -0.01289,0.0294 -0.03405,0.0589 -0.02025,0.0285 -0.04602,0.0515 -0.02577,0.0221 -0.0543,0.0359 -0.02853,0.0147 -0.05798,0.0147 -0.03129,0 -0.0497,-0.0166 -0.01749,-0.0166 -0.01749,-0.0433 0,-0.0203 0.0074,-0.0423 0.0083,-0.023 0.01749,-0.0451 0.01012,-0.023 0.01749,-0.0442 0.0083,-0.0221 0.0083,-0.0405 0,-0.0147 -0.0046,-0.0248 -0.0046,-0.011 -0.01289,-0.0184 -0.0074,-0.008 -0.01657,-0.0138 -0.0092,-0.006 -0.01749,-0.0129 -0.01104,0.0276 -0.02209,0.0543 -0.01104,0.0258 -0.02209,0.0488 -0.01104,0.023 -0.02117,0.0423 -0.0092,0.0193 -0.01657,0.0313 z"
           style="stroke-width:0.0768164"
           id="path439" />
        <path
           d="m 75.410544,127.23582 q 0.0083,0 0.01381,0.006 0.0064,0.005 0.0064,0.0147 0,0.011 -0.01565,0.0368 -0.01473,0.0249 -0.03313,0.0571 -0.01749,0.0313 -0.03221,0.0672 -0.01472,0.035 -0.01472,0.0672 0,0.0331 0.01104,0.0442 0.01104,0.011 0.03405,0.011 0.01565,0 0.03221,-0.007 0.01657,-0.007 0.03405,-0.0239 0.01841,-0.0166 0.03681,-0.0433 0.01933,-0.0267 0.03865,-0.0663 l 0.0083,0.009 q -0.01381,0.0396 -0.03405,0.0709 -0.01933,0.0304 -0.04326,0.0515 -0.02393,0.0202 -0.05062,0.0304 -0.02669,0.011 -0.05338,0.011 -0.03589,0 -0.05338,-0.023 -0.01749,-0.0221 -0.01749,-0.0543 0,-0.0175 0.0055,-0.0433 0.0055,-0.0258 0.01473,-0.0543 0.01012,-0.0294 0.02209,-0.058 0.01288,-0.0285 0.02761,-0.0515 0.01472,-0.023 0.03037,-0.0368 0.01657,-0.0147 0.03221,-0.0147 z m 0.04878,-0.0856 q -0.01565,0 -0.02669,-0.007 -0.01104,-0.007 -0.01104,-0.023 0,-0.009 0.0064,-0.0175 0.0064,-0.009 0.01565,-0.0156 0.01012,-0.007 0.02209,-0.011 0.01196,-0.004 0.02301,-0.004 0.0138,0 0.02209,0.006 0.0083,0.006 0.0083,0.0221 0,0.008 -0.0055,0.0175 -0.0046,0.009 -0.0138,0.0166 -0.0083,0.006 -0.01933,0.011 -0.01012,0.005 -0.02117,0.005 z"
           style="stroke-width:0.0768164"
           id="path441" />
        <path
           d="m 75.601977,127.29932 q -0.0046,0.007 -0.01196,0.0285 -0.0074,0.0203 -0.01473,0.0479 -0.0064,0.0267 -0.01197,0.058 -0.0055,0.0313 -0.0055,0.0598 0,0.0387 0.01104,0.0626 0.01196,0.0239 0.03957,0.0239 0.02669,0 0.0543,-0.0221 0.02853,-0.0212 0.04694,-0.0552 -0.03405,-0.0175 -0.05062,-0.0506 -0.01657,-0.0331 -0.01657,-0.0681 0,-0.0442 0.02301,-0.0709 0.02301,-0.0267 0.0543,-0.0267 0.02669,0 0.04234,0.0221 0.01565,0.0212 0.01565,0.0626 0,0.0304 -0.0083,0.0626 -0.0083,0.0322 -0.02393,0.0626 0.01104,0.003 0.02393,0.003 0.02485,0 0.04326,-0.009 0.01841,-0.0101 0.03221,-0.0249 0.01381,-0.0147 0.02393,-0.0322 0.01012,-0.0184 0.01841,-0.0341 l 0.01104,0.012 q -0.01288,0.0322 -0.02853,0.0525 -0.01565,0.0203 -0.03313,0.0322 -0.01657,0.011 -0.03497,0.0156 -0.01749,0.005 -0.03497,0.005 -0.01565,0 -0.02945,-0.003 -0.02485,0.0423 -0.06166,0.0718 -0.03589,0.0304 -0.08467,0.0304 -0.04786,0 -0.07179,-0.0313 -0.02301,-0.0313 -0.02301,-0.0847 0,-0.046 0.01565,-0.1086 0.01657,-0.0635 0.04142,-0.13069 0.02577,-0.0681 0.05706,-0.13437 0.03221,-0.0663 0.0635,-0.1178 0.03221,-0.0525 0.06074,-0.0847 0.02853,-0.0322 0.04786,-0.0322 0.01565,0 0.02209,0.0193 0.0074,0.0193 0.0074,0.0387 0,0.0322 -0.01749,0.0819 -0.01749,0.0497 -0.04694,0.10124 -0.02853,0.0515 -0.06719,0.0975 -0.03773,0.0451 -0.07823,0.0699 z m 0.174866,-0.33409 q -0.0074,0 -0.02853,0.0267 -0.02025,0.0267 -0.04602,0.07 -0.02485,0.0423 -0.0497,0.0957 -0.02485,0.0534 -0.0405,0.10584 0.03129,-0.0258 0.06166,-0.0672 0.03037,-0.0423 0.0543,-0.0856 0.02393,-0.0442 0.03773,-0.0819 0.01473,-0.0387 0.01473,-0.0561 0,-0.007 -0.0037,-0.007 z m -0.102158,0.42336 q 0,0.0249 0.01012,0.0525 0.01012,0.0276 0.03405,0.0433 0.01012,-0.0212 0.01565,-0.0442 0.0055,-0.0239 0.0055,-0.0488 0,-0.0322 -0.0092,-0.0506 -0.0083,-0.0184 -0.02117,-0.0184 -0.01381,0 -0.02485,0.0193 -0.01012,0.0184 -0.01012,0.0469 z"
           style="stroke-width:0.0768164"
           id="path443" />
        <path
           d="m 76.122895,127.2984 q 0.0037,9.2e-4 0.01104,0.003 0.0074,9.2e-4 0.01472,0.004 0.0074,0.003 0.01288,0.007 0.0055,0.005 0.0055,0.0101 0,0.004 -0.01012,0.0249 -0.0092,0.0212 -0.02117,0.0506 -0.01104,0.0285 -0.02117,0.0598 -0.0092,0.0304 -0.0092,0.0534 0,0.0166 0.0064,0.0267 0.0074,0.0101 0.02393,0.0101 0.01472,0 0.03405,-0.0101 0.01933,-0.0101 0.0405,-0.0285 0.02117,-0.0193 0.04142,-0.0469 0.02117,-0.0276 0.03773,-0.0635 l 0.01196,0.008 q -0.01472,0.0377 -0.03681,0.069 -0.02117,0.0304 -0.04602,0.0525 -0.02485,0.0221 -0.05154,0.034 -0.02577,0.0129 -0.05062,0.0129 -0.03681,0 -0.05062,-0.0202 -0.0138,-0.0193 -0.0138,-0.0479 0,-0.0111 0.0018,-0.0221 0.0018,-0.012 0.0046,-0.0239 -0.01288,0.023 -0.02669,0.0442 -0.0138,0.0202 -0.02945,0.0359 -0.01473,0.0156 -0.03129,0.0249 -0.01565,0.009 -0.03313,0.009 -0.03129,0 -0.05062,-0.0276 -0.01841,-0.0276 -0.01841,-0.0653 0,-0.0258 0.0083,-0.0617 0.0092,-0.0368 0.02117,-0.069 0.01288,-0.0322 0.02669,-0.0552 0.01472,-0.023 0.02485,-0.023 0.0046,0 0.01565,0.006 0.01104,0.005 0.01841,0.0129 -0.0074,0.012 -0.01841,0.034 -0.01012,0.0212 -0.02025,0.0469 -0.0092,0.0258 -0.01657,0.0534 -0.0064,0.0276 -0.0064,0.0506 0,0.006 9.2e-4,0.0166 9.2e-4,0.0101 0.0037,0.0203 0.0037,0.0101 0.01012,0.0175 0.0074,0.007 0.01841,0.007 0.02117,0 0.0451,-0.0276 0.02393,-0.0276 0.04694,-0.0663 0.02301,-0.0387 0.04234,-0.0792 0.02025,-0.0414 0.03313,-0.0672 z"
           style="stroke-width:0.0768164"
           id="path445" />
        <path
           d="m 76.552696,127.27079 q -0.101238,0.011 -0.161981,0.011 h -0.01381 q -0.02117,0.0497 -0.03589,0.10032 -0.01472,0.0506 -0.01472,0.10032 0,0.0405 0.01196,0.0571 0.01196,0.0166 0.03957,0.0166 0.04786,0 0.09388,-0.0423 0.04602,-0.0423 0.08099,-0.11504 l 0.01197,0.009 q -0.01657,0.0387 -0.0405,0.0727 -0.02301,0.0331 -0.05062,0.058 -0.02761,0.0239 -0.0589,0.0377 -0.03129,0.0138 -0.0635,0.0138 -0.08191,0 -0.08191,-0.0911 0,-0.0414 0.01473,-0.0994 0.01472,-0.0589 0.03865,-0.12241 -0.0092,-0.002 -0.01749,-0.003 -0.0083,-0.002 -0.01565,-0.005 v -0.0166 q 0.0074,9.2e-4 0.01749,0.002 0.01012,9.2e-4 0.02301,0.002 0.01933,-0.0497 0.04142,-0.0957 0.02209,-0.0469 0.04326,-0.0828 0.02209,-0.0368 0.04142,-0.058 0.02025,-0.0221 0.03405,-0.0221 0.0074,0 0.01289,0.006 0.0064,0.005 0.0064,0.0147 0,0.012 -0.01196,0.0359 -0.01105,0.023 -0.02945,0.0543 -0.01749,0.0313 -0.03957,0.0699 -0.02117,0.0387 -0.04142,0.081 h 0.03405 q 0.03037,0 0.0635,-9.2e-4 0.03313,-9.2e-4 0.06811,-0.005 z"
           style="stroke-width:0.0768164"
           id="path447" />
        <path
           d="m 76.664058,127.23582 q 0.0083,0 0.01381,0.006 0.0064,0.005 0.0064,0.0147 0,0.011 -0.01565,0.0368 -0.01473,0.0249 -0.03313,0.0571 -0.01749,0.0313 -0.03221,0.0672 -0.01473,0.035 -0.01473,0.0672 0,0.0331 0.01104,0.0442 0.01104,0.011 0.03405,0.011 0.01565,0 0.03221,-0.007 0.01657,-0.007 0.03405,-0.0239 0.01841,-0.0166 0.03681,-0.0433 0.01933,-0.0267 0.03865,-0.0663 l 0.0083,0.009 q -0.01381,0.0396 -0.03405,0.0709 -0.01933,0.0304 -0.04326,0.0515 -0.02393,0.0202 -0.05062,0.0304 -0.02669,0.011 -0.05338,0.011 -0.03589,0 -0.05338,-0.023 -0.01749,-0.0221 -0.01749,-0.0543 0,-0.0175 0.0055,-0.0433 0.0055,-0.0258 0.01473,-0.0543 0.01012,-0.0294 0.02209,-0.058 0.01288,-0.0285 0.02761,-0.0515 0.01473,-0.023 0.03037,-0.0368 0.01657,-0.0147 0.03221,-0.0147 z m 0.04878,-0.0856 q -0.01565,0 -0.02669,-0.007 -0.01104,-0.007 -0.01104,-0.023 0,-0.009 0.0064,-0.0175 0.0064,-0.009 0.01565,-0.0156 0.01012,-0.007 0.02209,-0.011 0.01196,-0.004 0.02301,-0.004 0.01381,0 0.02209,0.006 0.0083,0.006 0.0083,0.0221 0,0.008 -0.0055,0.0175 -0.0046,0.009 -0.01381,0.0166 -0.0083,0.006 -0.01933,0.011 -0.01012,0.005 -0.02117,0.005 z"
           style="stroke-width:0.0768164"
           id="path449" />
        <path
           d="m 77.007348,127.48983 q -0.02485,0 -0.04418,-0.009 -0.03221,0.0414 -0.06903,0.069 -0.03681,0.0276 -0.07179,0.0276 -0.03957,0 -0.05614,-0.0248 -0.01657,-0.0239 -0.01657,-0.0589 0,-0.0285 0.0092,-0.0589 0.0092,-0.0313 0.02393,-0.0571 0.01473,-0.0258 0.03405,-0.0423 0.01933,-0.0175 0.03866,-0.0175 0.0083,0 0.01933,0.005 -0.0083,0.007 -0.02025,0.0276 -0.01104,0.0202 -0.02117,0.0451 -0.01012,0.0249 -0.01749,0.0497 -0.0064,0.0248 -0.0064,0.0423 0,0.0276 0.0083,0.0405 0.0092,0.012 0.02485,0.012 0.01933,0 0.04602,-0.0203 0.02669,-0.0212 0.05246,-0.0534 -0.02669,-0.0212 -0.0405,-0.0552 -0.01381,-0.035 -0.01381,-0.0709 0,-0.023 0.0055,-0.0433 0.0064,-0.0212 0.01749,-0.0368 0.01197,-0.0166 0.02853,-0.0258 0.01657,-0.0101 0.03866,-0.0101 0.03773,0 0.05062,0.0203 0.01288,0.0202 0.01288,0.0506 0,0.0359 -0.01749,0.0801 -0.01749,0.0433 -0.04418,0.0837 0.01657,0.009 0.03497,0.009 0.01104,0 0.02393,-0.003 0.01381,-0.004 0.02761,-0.011 0.0138,-0.008 0.02577,-0.0203 0.01288,-0.0129 0.02117,-0.0322 l 0.01104,0.009 q -0.0092,0.0221 -0.02301,0.0368 -0.0138,0.0147 -0.02945,0.0248 -0.01565,0.009 -0.03221,0.0138 -0.01657,0.004 -0.03129,0.004 z m -0.08099,-0.14725 q 0,0.0267 0.0074,0.0543 0.0083,0.0267 0.02393,0.0451 0.02301,-0.034 0.03773,-0.0709 0.01564,-0.0377 0.01564,-0.0709 0,-0.0267 -0.0083,-0.0387 -0.0074,-0.0129 -0.01933,-0.0129 -0.0092,0 -0.01933,0.007 -0.01012,0.007 -0.01841,0.0202 -0.0083,0.012 -0.0138,0.0295 -0.0055,0.0166 -0.0055,0.0368 z"
           style="stroke-width:0.0768164"
           id="path451" />
        <path
           d="m 77.059808,127.54137 q 0,-0.004 0.01012,-0.0285 0.01012,-0.0249 0.02209,-0.0589 0.01196,-0.0341 0.02209,-0.0709 0.01104,-0.0377 0.01104,-0.0681 0.0055,-0.006 0.01749,-0.0129 0.01197,-0.006 0.02485,-0.006 0.02485,0 0.02485,0.0239 0,0.0147 -0.0083,0.0488 -0.0083,0.034 -0.02117,0.0727 0.01841,-0.0276 0.0405,-0.0561 0.02209,-0.0295 0.04694,-0.0525 0.02485,-0.0239 0.05062,-0.0386 0.02669,-0.0147 0.05338,-0.0147 0.01749,0 0.03037,0.007 0.01288,0.006 0.02117,0.0184 0.0083,0.012 0.01196,0.0267 0.0046,0.0147 0.0046,0.0304 0,0.0212 -0.0064,0.0405 -0.0055,0.0193 -0.01288,0.0368 -0.0064,0.0175 -0.01288,0.035 -0.0055,0.0166 -0.0055,0.0331 0,0.0193 0.0074,0.0276 0.0083,0.007 0.02025,0.007 0.01749,0 0.03497,-0.0129 0.01749,-0.0129 0.03405,-0.0331 0.01657,-0.0212 0.03129,-0.046 0.01565,-0.0258 0.02853,-0.0515 l 0.01012,0.012 q -0.01473,0.0341 -0.03221,0.0626 -0.01657,0.0285 -0.03681,0.0497 -0.01933,0.0203 -0.04234,0.0313 -0.02209,0.012 -0.04786,0.012 -0.03221,0 -0.04878,-0.0166 -0.01565,-0.0166 -0.01565,-0.0423 0,-0.0138 0.0037,-0.0295 0.0046,-0.0156 0.0092,-0.0322 0.0055,-0.0166 0.0092,-0.0331 0.0046,-0.0166 0.0046,-0.0331 0,-0.0258 -0.01104,-0.035 -0.01012,-0.0101 -0.02577,-0.0101 -0.02853,0 -0.05798,0.0239 -0.02945,0.0239 -0.05706,0.0598 -0.02761,0.035 -0.05246,0.0746 -0.02393,0.0387 -0.04142,0.069 -0.01472,0 -0.02761,-0.006 -0.01381,-0.005 -0.02117,-0.0147 z"
           style="stroke-width:0.0768164"
           id="path453" />
        <path
           d="m 77.506177,127.47419 q 0,-0.0276 0.0083,-0.0423 0.0074,-0.0147 0.01749,-0.0221 0.01012,-0.007 0.01933,-0.0101 0.01012,-0.004 0.01381,-0.008 0.02761,-0.0304 0.05062,-0.0635 0.02301,-0.0331 0.04049,-0.0699 v -0.011 q 0,-0.034 0.01104,-0.0479 0.01197,-0.0147 0.02485,-0.0147 0.01472,0 0.01472,0.012 0,0.005 -0.0028,0.0147 -0.0028,0.0101 -0.0028,0.0258 0,0.023 0.0074,0.0488 0.0074,0.0249 0.01657,0.0534 0.0092,0.0276 0.01657,0.058 0.0074,0.0304 0.0074,0.0617 0,0.0249 -0.0055,0.0451 0.03221,-0.006 0.06074,-0.0285 0.02853,-0.023 0.05522,-0.0755 l 0.0083,0.009 q -0.01749,0.0506 -0.05246,0.0773 -0.03497,0.0258 -0.07639,0.0322 -0.01472,0.0396 -0.04694,0.058 -0.03129,0.0184 -0.07087,0.0184 -0.03221,0 -0.0543,-0.011 -0.02209,-0.011 -0.03589,-0.0285 -0.01288,-0.0175 -0.01841,-0.0387 -0.0064,-0.0212 -0.0064,-0.0423 z m 0.18315,-0.0147 q 0,-0.0442 -0.01105,-0.0856 -0.01012,-0.0423 -0.01749,-0.081 -0.02117,0.035 -0.0451,0.0672 -0.02301,0.0313 -0.04418,0.0525 0.01381,0.0294 0.04234,0.0552 0.02945,0.0258 0.07179,0.035 0.0018,-0.009 0.0028,-0.0193 9.21e-4,-0.0101 9.21e-4,-0.0239 z m -0.06627,0.10308 q 0.0055,0 0.01288,-0.002 0.0083,-9.2e-4 0.01657,-0.006 0.0083,-0.005 0.01565,-0.0129 0.0074,-0.009 0.01288,-0.0249 -0.03865,-0.007 -0.06903,-0.0294 -0.02945,-0.023 -0.04418,-0.0469 -0.02025,9.2e-4 -0.02025,0.0322 0,0.0166 0.0046,0.0331 0.0055,0.0156 0.01472,0.0285 0.01012,0.012 0.02393,0.0193 0.01381,0.008 0.03221,0.008 z"
           style="stroke-width:0.0768164"
           id="path455" />
      </g>
    </g>
  </g>
</svg>
